<svg width="550" height="150" version="1.1" xmlns="http://www.w3.org/2000/svg">
  <circle cx="20" cy="20" r="5" fill="#000164" />
  <circle cx="40" cy="20" r="5" fill="#000164" />
  <circle cx="60" cy="20" r="5" fill="#000164" />
  <circle cx="80" cy="20" r="5" fill="#000164" />
  <circle cx="100" cy="20" r="5" fill="#000164" />
  <circle cx="120" cy="20" r="5" fill="#000164" />
  <circle cx="140" cy="20" r="5" fill="#000164" />
  <circle cx="160" cy="20" r="5" fill="#000164" />
  <circle cx="180" cy="20" r="5" fill="#000164" />
  <circle cx="200" cy="20" r="5" fill="#000164" />
  <circle cx="220" cy="20" r="5" fill="#000164" />
  <circle cx="240" cy="20" r="5" fill="#000164" />
  <circle cx="260" cy="20" r="5" fill="#000164" />
  <circle cx="280" cy="20" r="5" fill="#000164" />
  <circle cx="300" cy="20" r="5" fill="#000164" />
  <circle cx="320" cy="20" r="5" fill="#000164" />
  <circle cx="340" cy="20" r="5" fill="#000164" />
  <circle cx="360" cy="20" r="5" fill="#000164" />
  <circle cx="380" cy="20" r="5" fill="#000164" />
  <circle cx="400" cy="20" r="5" fill="#000164" />
  <circle cx="420" cy="20" r="5" fill="#000164" />
  <circle cx="440" cy="20" r="5" fill="#000164" />
  <circle cx="460" cy="20" r="5" fill="#000164" />
  <circle cx="480" cy="20" r="5" fill="#000164" />
  <circle cx="10" cy="40" r="5" fill="#000164" />
  <circle cx="30" cy="40" r="5" fill="#000164" />
  <circle cx="50" cy="40" r="5" fill="#000164" />
  <circle cx="70" cy="40" r="5" fill="#000164" />
  <circle cx="90" cy="40" r="5" fill="#000164" />
  <circle cx="110" cy="40" r="5" fill="#000164" />
  <circle cx="130" cy="40" r="5" fill="#000164" />
  <circle cx="150" cy="40" r="5" fill="#000164" />
  <circle cx="170" cy="40" r="5" fill="#000164" />
  <circle cx="190" cy="40" r="5" fill="#000164" />
  <circle cx="210" cy="40" r="5" fill="#000164" />
  <circle cx="210" cy="40" r="5" fill="#000164" />
  <circle cx="230" cy="40" r="5" fill="#000164" />
  <circle cx="250" cy="40" r="5" fill="#000164" />
  <circle cx="270" cy="40" r="5" fill="#000164" />
  <circle cx="290" cy="40" r="5" fill="#000164" />
  <circle cx="310" cy="40" r="5" fill="#000164" />
  <circle cx="330" cy="40" r="5" fill="#000164" />
  <circle cx="350" cy="40" r="5" fill="#000164" />
  <circle cx="370" cy="40" r="5" fill="#000164" />
  <circle cx="390" cy="40" r="5" fill="#000164" />
  <circle cx="410" cy="40" r="5" fill="#000164" />
  <circle cx="430" cy="40" r="5" fill="#000164" />
  <circle cx="450" cy="40" r="5" fill="#000164" />
  <circle cx="470" cy="40" r="5" fill="#000164" />
  <circle cx="490" cy="40" r="5" fill="#000164" />
  <circle cx="20" cy="60" r="5" fill="#000164" />
  <circle cx="40" cy="60" r="5" fill="#000164" />
  <circle cx="60" cy="60" r="5" fill="#000164" />
  <circle cx="80" cy="60" r="5" fill="#000164" />
  <circle cx="100" cy="60" r="5" fill="#000164" />
  <circle cx="120" cy="60" r="5" fill="#000164" />
  <circle cx="140" cy="60" r="5" fill="#000164" />
  <circle cx="160" cy="60" r="5" fill="#000164" />
  <circle cx="180" cy="60" r="5" fill="#000164" />
  <circle cx="200" cy="60" r="5" fill="#000164" />
  <circle cx="220" cy="60" r="5" fill="#000164" />
  <circle cx="240" cy="60" r="5" fill="#000164" />
  <circle cx="260" cy="60" r="5" fill="#000164" />
  <circle cx="280" cy="60" r="5" fill="#000164" />
  <circle cx="300" cy="60" r="5" fill="#000164" />
  <circle cx="320" cy="60" r="5" fill="#000164" />
  <circle cx="340" cy="60" r="5" fill="#000164" />
  <circle cx="360" cy="60" r="5" fill="#000164" />
  <circle cx="380" cy="60" r="5" fill="#000164" />
  <circle cx="400" cy="60" r="5" fill="#000164" />
  <circle cx="420" cy="60" r="5" fill="#000164" />
  <circle cx="440" cy="60" r="5" fill="#000164" />
  <circle cx="460" cy="60" r="5" fill="#000164" />
  <circle cx="480" cy="60" r="5" fill="#000164" />
  <circle cx="10" cy="80" r="5" fill="#000164" />
  <circle cx="30" cy="80" r="5" fill="#000164" />
  <circle cx="50" cy="80" r="5" fill="#000164" />
  <circle cx="70" cy="80" r="5" fill="#000164" />
  <circle cx="90" cy="80" r="5" fill="#000164" />
  <circle cx="110" cy="80" r="5" fill="#000164" />
  <circle cx="130" cy="80" r="5" fill="#000164" />
  <circle cx="150" cy="80" r="5" fill="#000164" />
  <circle cx="170" cy="80" r="5" fill="#000164" />
  <circle cx="190" cy="80" r="5" fill="#000164" />
  <circle cx="210" cy="80" r="5" fill="#000164" />
  <circle cx="10" cy="80" r="5" fill="#000164" />
  <circle cx="30" cy="80" r="5" fill="#000164" />
  <circle cx="50" cy="80" r="5" fill="#000164" />
  <circle cx="70" cy="80" r="5" fill="#000164" />
  <circle cx="90" cy="80" r="5" fill="#000164" />
  <circle cx="110" cy="80" r="5" fill="#000164" />
  <circle cx="130" cy="80" r="5" fill="#000164" />
  <circle cx="150" cy="80" r="5" fill="#000164" />
  <circle cx="170" cy="80" r="5" fill="#000164" />
  <circle cx="190" cy="80" r="5" fill="#000164" />
  <circle cx="210" cy="80" r="5" fill="#000164" />
  <circle cx="230" cy="80" r="5" fill="#000164" />
  <circle cx="250" cy="80" r="5" fill="#000164" />
  <circle cx="270" cy="80" r="5" fill="#000164" />
  <circle cx="290" cy="80" r="5" fill="#000164" />
  <circle cx="310" cy="80" r="5" fill="#000164" />
  <circle cx="330" cy="80" r="5" fill="#000164" />
  <circle cx="350" cy="80" r="5" fill="#000164" />
  <circle cx="370" cy="80" r="5" fill="#000164" />
  <circle cx="390" cy="80" r="5" fill="#000164" />
  <circle cx="410" cy="80" r="5" fill="#000164" />
  <circle cx="430" cy="80" r="5" fill="#000164" />
  <circle cx="450" cy="80" r="5" fill="#000164" />
  <circle cx="470" cy="80" r="5" fill="#000164" />
  <circle cx="490" cy="80" r="5" fill="#000164" />
  <circle cx="20" cy="100" r="5" fill="#000164" />
  <circle cx="40" cy="100" r="5" fill="#000164" />
  <circle cx="60" cy="100" r="5" fill="#000164" />
  <circle cx="80" cy="100" r="5" fill="#000164" />
  <circle cx="100" cy="100" r="5" fill="#000164" />
  <circle cx="120" cy="100" r="5" fill="#000164" />
  <circle cx="140" cy="100" r="5" fill="#000164" />
  <circle cx="160" cy="100" r="5" fill="#000164" />
  <circle cx="180" cy="100" r="5" fill="#000164" />
  <circle cx="200" cy="100" r="5" fill="#000164" />
  <circle cx="220" cy="100" r="5" fill="#000164" />
  <circle cx="240" cy="100" r="5" fill="#000164" />
  <circle cx="260" cy="100" r="5" fill="#000164" />
  <circle cx="280" cy="100" r="5" fill="#000164" />
  <circle cx="300" cy="100" r="5" fill="#000164" />
  <circle cx="320" cy="100" r="5" fill="#000164" />
  <circle cx="340" cy="100" r="5" fill="#000164" />
  <circle cx="360" cy="100" r="5" fill="#000164" />
  <circle cx="380" cy="100" r="5" fill="#000164" />
  <circle cx="400" cy="100" r="5" fill="#000164" />
  <circle cx="420" cy="100" r="5" fill="#000164" />
  <circle cx="440" cy="100" r="5" fill="#000164" />
  <circle cx="460" cy="100" r="5" fill="#000164" />
  <circle cx="480" cy="100" r="5" fill="#000164" />
  <circle cx="10" cy="120" r="5" fill="#000164" />
  <circle cx="30" cy="120" r="5" fill="#000164" />
  <circle cx="50" cy="120" r="5" fill="#000164" />
  <circle cx="70" cy="120" r="5" fill="#000164" />
  <circle cx="90" cy="120" r="5" fill="#000164" />
  <circle cx="110" cy="120" r="5" fill="#000164" />
  <circle cx="130" cy="120" r="5" fill="#000164" />
  <circle cx="150" cy="120" r="5" fill="#000164" />
  <circle cx="170" cy="120" r="5" fill="#000164" />
  <circle cx="190" cy="120" r="5" fill="#000164" />
  <circle cx="210" cy="120" r="5" fill="#000164" />
  <circle cx="230" cy="120" r="5" fill="#000164" />
  <circle cx="250" cy="120" r="5" fill="#000164" />
  <circle cx="270" cy="120" r="5" fill="#000164" />
  <circle cx="290" cy="120" r="5" fill="#000164" />
  <circle cx="310" cy="120" r="5" fill="#000164" />
  <circle cx="330" cy="120" r="5" fill="#000164" />
  <circle cx="350" cy="120" r="5" fill="#000164" />
  <circle cx="370" cy="120" r="5" fill="#000164" />
  <circle cx="390" cy="120" r="5" fill="#000164" />
  <circle cx="410" cy="120" r="5" fill="#000164" />
  <circle cx="430" cy="120" r="5" fill="#000164" />
  <circle cx="450" cy="120" r="5" fill="#000164" />
  <circle cx="470" cy="120" r="5" fill="#000164" />
  <circle cx="490" cy="120" r="5" fill="#000164" />
  
</svg>