<svg id="Layer_1" data-name="Layer 1" xmlns="http://www.w3.org/2000/svg" viewBox="0 0 1590.75 592.78"><defs><style>.cls-1{fill:none;stroke:#013ab1;stroke-miterlimit:10;stroke-width:25px;}</style></defs><path class="cls-1" d="M150.51,609.11c44-22,164-90,240-186s49.43-198.5,0-170c-43.52,25.1-145.41,154.18-97.43,304,48.36,151-61.09,65.22-92.57,6-10.45-19.65-22.52-48.9-6.52-85.45" transform="translate(-148.27 -243.27)"/><path class="cls-1" d="M501.26,526.36c-64.07-84.09-189.87,112.92-84,80.75,65-19.75,77.16-53.45,81.49-65.45,1.81-5,4.66-13.45,3.51-8.55-5.64,24.16-34.27,95.1,16.73,74,45.11-18.65,63.52-83,63.52-83-1.76,12.89,22.39,103.67,60.25,84,36-18.7,17.5-89.5,90.75-72.5" transform="translate(-148.27 -243.27)"/><path class="cls-1" d="M761,528.61c-27.23,77.89-1.5,82.5-1.5,82.5" transform="translate(-148.27 -243.27)"/><path class="cls-1" d="M830,533.61c-21.41,30.55-26.5,81.5-26.5,81.5s8.5-81.06,56-87-31.32,91.72,27.5,82c44.07-7.28,55.57-85.45,55.57-85.45-2.3,24.2-20.85,91.62,29,83.51,39-6.34,41.54-84.51,41.54-84.51s.36,96,50.36,134.45" transform="translate(-148.27 -243.27)"/><path class="cls-1" d="M787.08,487.66a49,49,0,0,0-13.75,18.42" transform="translate(-148.27 -243.27)"/><path class="cls-1" d="M1106,351.29s26.51,387.88,114.29,213.85c53-105.15,71.77-239.69,71.77-239.69,1.42,53.32-58.82,229.25-71.52,293.88" transform="translate(-148.27 -243.27)"/><path class="cls-1" d="M1313.08,523.86s-6,69.13-32,87.25" transform="translate(-148.27 -243.27)"/><path class="cls-1" d="M1343.2,429.6" transform="translate(-148.27 -243.27)"/><path class="cls-1" d="M1317,485a174.3,174.3,0,0,1-1.87,23" transform="translate(-148.27 -243.27)"/><path class="cls-1" d="M1370.19,523.62s-40.73,251.07-111.11,251.78c-37,.37-44.17-49.48-44.17-49.48" transform="translate(-148.27 -243.27)"/><path class="cls-1" d="M1378.89,485.76c-2.76,9.26-6.07,22.46-6.07,22.46" transform="translate(-148.27 -243.27)"/><path class="cls-1" d="M1525.58,524.83s-47.5-61.5-104.5,22.31c-60.82,89.43,58.28,71.42,87.56,24,17-27.49,20.77-45.39,20.77-45.39s-23.91,99.75,24.67,84.35,70.6-86.15,70.6-86.15-30.22,68.86,2.9,83.15,74.32-21.1,87-41.28c11.61-18.47,19.64-43,19.64-43s-51.82,182.55-63.81,211.6c-12.7,30.79-35.89,78.07-69,97.31" transform="translate(-148.27 -243.27)"/></svg>